<svg xmlns="http://www.w3.org/2000/svg" xmlns:xlink="http://www.w3.org/1999/xlink" aria-hidden="true" role="img" class="iconify iconify--logos" width="31.88" height="32" preserveAspectRatio="xMidYMid meet" viewBox="0 0 256 257"><defs><linearGradient id="IconifyId1813088fe1fbc01fb466" x1="-.828%" x2="57.636%" y1="7.652%" y2="78.411%"><stop offset="0%" stop-color="#41D1FF"></stop><stop offset="100%" stop-color="#BD34FE"></stop></linearGradient><linearGradient id="IconifyId1813088fe1fbc01fb467" x1="43.376%" x2="50.316%" y1="2.242%" y2="89.03%"><stop offset="0%" stop-color="#FFEA83"></stop><stop offset="8.333%" stop-color="#FFDD35"></stop><stop offset="100%" stop-color="#FFA800"></stop></linearGradient></defs><path fill="url(#IconifyId1813088fe1fbc01fb466)" d="M255.153 37.938L134.897 252.976c-2.483 4.144-8.861 4.144-11.336 0l-120.541-215.038c-2.483-4.144-.39-9.166 4.319-11.144l235.468-135.68c4.644-2.688 10.501 1.271 10.865 6.514z"></path><path fill="url(#IconifyId1813088fe1fbc01fb467)" d="M185.432.063L96.44 17.501a6.025 6.025 0 0 0-3.624 3.513l-5.475 92.456a6.025 6.025 0 0 0 1.564 5.29l54.853 54.853a6.025 6.025 0 0 0 8.514-8.514l-50.262-50.262l4.972-83.562l60.537-17.944a6.025 6.025 0 0 0 3.624-7.122L193.68 7.074a6.025 6.025 0 0 0-8.248-6.945z"></path></svg>
